<svg width="49" height="50" viewBox="0 0 49 50" fill="none" xmlns="http://www.w3.org/2000/svg">
<path d="M45.9041 19.5308C45.3144 19.5308 44.7737 19.1217 44.5771 18.5082C41.8249 9.15185 33.6663 2.91428 24.2791 2.91428C16.0714 2.91428 8.55175 7.87366 5.06225 15.5939C4.71822 16.3097 3.8827 16.6165 3.19463 16.3097C2.50656 15.9518 2.21168 15.0827 2.50656 14.3669C6.48754 5.62404 15.0393 0 24.2791 0C34.895 0 44.1348 7.10674 47.2311 17.639C47.4769 18.406 47.0345 19.224 46.2973 19.4285C46.1499 19.4796 46.0516 19.5308 45.9041 19.5308Z" fill="#1BA1BE"/>
<path d="M1.47444 7.82257L4.12842 14.1624L10.2719 11.4015L8.79747 15.2872L2.65399 18.0481L0 11.7083L1.47444 7.82257Z" fill="#1BA1BE"/>
<path d="M24.2791 49.9518C13.6632 49.9518 4.42336 42.8451 1.32704 32.3128C1.0813 31.5459 1.52363 30.7278 2.26085 30.5233C2.99807 30.2677 3.78444 30.7278 3.98103 31.4947C6.73331 40.7488 14.8919 47.0375 24.2791 47.0375C32.4868 47.0375 40.0064 42.0782 43.4959 34.3579C43.84 33.6421 44.6755 33.3353 45.3635 33.6421C46.0516 34 46.3465 34.8692 46.0516 35.5849C42.0706 44.2766 33.5189 49.9518 24.2791 49.9518Z" fill="#1BA1BE"/>
<path d="M47.0837 42.1292L44.4297 35.7383L38.2863 38.5503L39.7607 34.6646L45.9042 31.8526L48.5582 38.2435L47.0837 42.1292Z" fill="#1BA1BE"/>
</svg>
